# Blender 4.1.1
# www.blender.org
o Mesh
v -0.080448 0.322960 -0.024330
v -0.080448 0.322960 0.022330
v -0.092861 0.346022 0.022330
v -0.095733 0.390403 0.022330
v -0.080448 0.419096 0.022330
v -0.080448 0.419096 -0.024330
v -0.095733 0.390403 -0.024330
v -0.092861 0.346022 -0.024330
v -0.026816 0.277507 -0.024330
v -0.026816 0.277507 0.022330
v -0.031911 0.329813 0.044808
v -0.031911 0.380836 0.044808
v -0.026816 0.431478 0.022330
v -0.026816 0.431478 -0.024330
v -0.031911 0.380836 -0.046808
v -0.031911 0.329813 -0.046808
v 0.026816 0.277507 -0.024330
v 0.026816 0.277507 0.022330
v 0.031911 0.329813 0.044808
v 0.031911 0.380836 0.044808
v 0.026816 0.431478 0.022330
v 0.026816 0.431478 -0.024330
v 0.031911 0.380836 -0.046808
v 0.031911 0.329813 -0.046808
v 0.080448 0.322960 -0.024330
v 0.080448 0.322960 0.022330
v 0.092861 0.346022 0.022330
v 0.095733 0.390403 0.022330
v 0.080448 0.419096 0.022330
v 0.080448 0.419096 -0.024330
v 0.095733 0.390403 -0.024330
v 0.092861 0.346022 -0.024330
v 0.000000 0.266647 -0.024330
v 0.000000 0.266647 0.022330
v 0.000000 0.325030 0.045479
v 0.000000 0.375183 0.045479
v 0.000000 0.407833 0.033762
v 0.000000 0.407833 -0.035761
v 0.000000 0.375183 -0.047479
v 0.000000 0.325030 -0.047479
v -0.053632 0.295608 -0.024330
v -0.053632 0.295608 0.022330
v -0.063822 0.336771 0.038661
v -0.063822 0.388228 0.038661
v -0.059263 0.433598 0.022330
v -0.059263 0.433598 -0.024330
v -0.063822 0.388228 -0.040661
v -0.063822 0.336771 -0.040661
v 0.053632 0.295608 -0.024330
v 0.053632 0.295608 0.022330
v 0.063822 0.336771 0.038661
v 0.063822 0.388228 0.038661
v 0.059263 0.433598 0.022330
v 0.059263 0.433598 -0.024330
v 0.063822 0.388228 -0.040661
v 0.063822 0.336771 -0.040661
v -0.086971 0.320335 -0.001000
v -0.100390 0.345267 -0.001000
v -0.103495 0.393245 -0.001000
v -0.086971 0.424265 -0.001000
v 0.100390 0.345267 -0.001000
v 0.086971 0.320335 -0.001000
v 0.103495 0.393245 -0.001000
v 0.086971 0.424265 -0.001000
v 0.000000 0.259455 -0.001000
v -0.028990 0.271196 -0.001000
v 0.028990 0.271196 -0.001000
v -0.028990 0.438180 -0.001000
v 0.000000 0.412089 -0.001000
v 0.028990 0.438180 -0.001000
v -0.057981 0.290765 -0.001000
v -0.064068 0.440789 -0.001000
v 0.057981 0.290765 -0.001000
v 0.064068 0.440789 -0.001000
vn -0.0746 -0.3676 0.9270
vn 0.1476 -0.3646 0.9194
vn 0.1477 -0.3646 0.9194
vn -0.0210 -0.0000 0.9998
vn 0.0210 -0.0000 0.9998
vn -0.0210 -0.0000 -0.9998
vn 0.0210 -0.0000 -0.9998
vn -0.1476 -0.3646 -0.9194
vn -0.1477 -0.3646 -0.9194
vn 0.0746 -0.3676 -0.9270
vn -0.2788 -0.4130 0.8670
vn -0.4556 -0.0000 0.8902
vn -0.1892 -0.0000 0.9819
vn -0.0996 0.3459 0.9330
vn -0.0996 0.3458 0.9330
vn 0.0220 0.3367 -0.9414
vn 0.0220 0.3366 -0.9414
vn -0.4902 -0.0000 -0.8716
vn -0.1892 -0.0000 -0.9819
vn -0.2580 -0.4108 -0.8744
vn 0.2580 -0.4108 0.8744
vn 0.1892 -0.0000 0.9819
vn 0.4902 -0.0000 0.8716
vn -0.0220 0.3367 0.9414
vn -0.0220 0.3366 0.9414
vn 0.0996 0.3459 -0.9330
vn 0.0996 0.3458 -0.9330
vn 0.1892 -0.0000 -0.9819
vn 0.4556 -0.0000 -0.8902
vn 0.2788 -0.4130 -0.8670
vn -0.8435 -0.4540 -0.2869
vn -0.8435 -0.4540 0.2869
vn -0.9493 -0.0614 -0.3084
vn -0.9493 -0.0614 0.3084
vn -0.8328 0.4436 -0.3311
vn -0.8328 0.4436 0.3311
vn 0.8435 -0.4540 -0.2869
vn 0.8435 -0.4540 0.2869
vn 0.9493 -0.0614 -0.3084
vn 0.9493 -0.0614 0.3084
vn 0.8328 0.4436 -0.3311
vn 0.8328 0.4436 0.3311
vn -0.3609 -0.8912 -0.2747
vn -0.3609 -0.8912 0.2747
vn 0.3609 -0.8912 -0.2747
vn 0.3609 -0.8912 0.2747
vn 0.6662 0.7402 -0.0906
vn 0.6614 0.7349 0.1495
vn 0.6614 0.7350 0.1495
vn -0.6614 0.7349 -0.1495
vn -0.6614 0.7350 -0.1495
vn -0.6662 0.7402 0.0906
vn -0.6662 0.7402 0.0907
vn -0.6879 -0.6744 -0.2682
vn -0.6879 -0.6744 0.2682
vn -0.5393 -0.7989 -0.2664
vn -0.5393 -0.7989 0.2664
vn -0.5487 0.7604 -0.3474
vn -0.5487 0.7605 -0.3474
vn -0.5534 0.7670 0.3247
vn 0.0714 0.9604 -0.2693
vn 0.0712 0.9572 0.2804
vn 0.5393 -0.7989 -0.2664
vn 0.5393 -0.7989 0.2664
vn 0.6879 -0.6744 -0.2682
vn 0.6879 -0.6744 0.2682
vn -0.0712 0.9572 -0.2804
vn -0.0715 0.9604 0.2692
vn -0.0714 0.9604 0.2693
vn 0.5534 0.7670 -0.3247
vn 0.5487 0.7604 0.3474
vn 0.5487 0.7605 0.3474
vn -0.4314 -0.4230 -0.7969
vn -0.5376 -0.2894 -0.7920
vn -0.4310 0.2296 -0.8727
vn -0.2396 0.3500 -0.9056
vn -0.4310 0.2296 0.8727
vn -0.2396 0.3500 0.9056
vn -0.5376 -0.2894 0.7920
vn -0.4314 -0.4230 0.7969
vn 0.0293 0.4080 -0.9125
vn -0.0400 0.3375 -0.9405
vn 0.5376 -0.2894 -0.7920
vn 0.4314 -0.4230 -0.7969
vn 0.0400 0.3375 -0.9405
vn -0.0293 0.4080 -0.9125
vn 0.4310 0.2296 -0.8727
vn 0.2396 0.3500 -0.9056
vn -0.0400 0.3375 0.9405
vn 0.0293 0.4080 0.9125
vn 0.4310 0.2296 0.8727
vn 0.2396 0.3500 0.9056
vn -0.0293 0.4080 0.9125
vn 0.0400 0.3375 0.9405
vn 0.4314 -0.4230 0.7969
vn 0.5376 -0.2894 0.7920
vt 0.666667 0.500000
vt 0.666667 0.444444
vt 0.750000 0.444444
vt 0.750000 0.500000
vt 0.750000 0.555556
vt 0.666667 0.555556
vt 0.583333 0.500000
vt 0.583333 0.444444
vt 0.583333 0.555556
vt 0.083333 0.500000
vt 0.083333 0.444444
vt 0.166667 0.444444
vt 0.166667 0.500000
vt 0.166667 0.555556
vt 0.083333 0.555556
vt 0.000000 0.500000
vt 0.000000 0.444444
vt 0.000000 0.555556
vt 0.750000 0.388889
vt 0.666667 0.388889
vt 0.583333 0.388889
vt 0.583333 0.333333
vt 0.666667 0.333333
vt 0.500000 0.444444
vt 0.500000 0.388889
vt 0.250000 0.388889
vt 0.250000 0.444444
vt 0.166667 0.388889
vt 0.083333 0.388889
vt 0.083333 0.333333
vt 0.166667 0.333333
vt 0.000000 0.388889
vt 0.666667 0.611111
vt 0.750000 0.611111
vt 0.583333 0.611111
vt 0.666667 0.666667
vt 0.583333 0.666667
vt 0.500000 0.611111
vt 0.500000 0.555556
vt 0.166667 0.611111
vt 0.250000 0.555556
vt 0.250000 0.611111
vt 0.083333 0.611111
vt 0.166667 0.666667
vt 0.083333 0.666667
vt 0.000000 0.611111
vt 0.375000 0.111111
vt 0.250000 0.111111
vt 0.250000 0.000000
vt 0.375000 0.000000
vt 0.500000 0.000000
vt 0.500000 0.111111
vt 0.375000 0.222222
vt 0.250000 0.222222
vt 0.500000 0.222222
vt 0.375000 0.333333
vt 0.250000 0.333333
vt 0.500000 0.333333
vt 0.375000 1.000000
vt 0.250000 1.000000
vt 0.250000 0.888889
vt 0.375000 0.888889
vt 0.500000 0.888889
vt 0.500000 1.000000
vt 0.250000 0.777778
vt 0.375000 0.777778
vt 0.500000 0.777778
vt 0.250000 0.666667
vt 0.375000 0.666667
vt 0.500000 0.666667
vt 0.875000 0.444444
vt 1.000000 0.444444
vt 1.000000 0.500000
vt 0.875000 0.500000
vt 1.000000 0.555556
vt 0.875000 0.555556
vt 0.375000 0.500000
vt 0.250000 0.500000
vt 0.375000 0.444444
vt 0.500000 0.500000
vt 0.375000 0.555556
vt 0.875000 0.333333
vt 1.000000 0.333333
vt 1.000000 0.388889
vt 0.875000 0.388889
vt 0.750000 0.333333
vt 0.375000 0.388889
vt 1.000000 0.611111
vt 0.875000 0.611111
vt 1.000000 0.666667
vt 0.875000 0.666667
vt 0.750000 0.666667
vt 0.375000 0.611111
vt 0.000000 0.333333
vt 0.000000 0.666667
s 1
f 35/1/1 11/2/1 10/3/1 34/4/1
f 34/4/2 18/5/2 19/6/3 35/1/2
f 36/7/4 12/8/4 11/2/4 35/1/4
f 35/1/5 19/6/5 20/9/5 36/7/5
f 40/10/6 16/11/6 15/12/6 39/13/6
f 39/13/7 23/14/7 24/15/7 40/10/7
f 33/16/8 9/17/8 16/11/9 40/10/8
f 40/10/10 24/15/10 17/18/10 33/16/10
f 42/19/11 10/3/11 11/2/11 43/20/11
f 44/21/12 4/22/12 3/23/12 43/20/12
f 43/20/13 11/2/13 12/8/13 44/21/13
f 44/21/14 12/8/15 13/24/14 45/25/15
f 46/26/16 14/27/17 15/12/16 47/28/16
f 48/29/18 8/30/18 7/31/18 47/28/18
f 47/28/19 15/12/19 16/11/19 48/29/19
f 48/29/20 16/11/20 9/17/20 41/32/20
f 51/33/21 19/6/21 18/5/21 50/34/21
f 52/35/22 20/9/22 19/6/22 51/33/22
f 51/33/23 27/36/23 28/37/23 52/35/23
f 53/38/24 21/39/25 20/9/24 52/35/24
f 55/40/26 23/14/27 22/41/26 54/42/27
f 56/43/28 24/15/28 23/14/28 55/40/28
f 55/40/29 31/44/29 32/45/29 56/43/29
f 49/46/30 17/18/30 24/15/30 56/43/30
f 58/47/31 8/48/31 1/49/31 57/50/31
f 57/50/32 2/51/32 3/52/32 58/47/32
f 59/53/33 7/54/33 8/48/33 58/47/33
f 58/47/34 3/52/34 4/55/34 59/53/34
f 60/56/35 6/57/35 7/54/35 59/53/35
f 59/53/36 4/55/36 5/58/36 60/56/36
f 62/59/37 25/60/37 32/61/37 61/62/37
f 61/62/38 27/63/38 26/64/38 62/59/38
f 61/62/39 32/61/39 31/65/39 63/66/39
f 63/66/40 28/67/40 27/63/40 61/62/40
f 63/66/41 31/65/41 30/68/41 64/69/41
f 64/69/42 29/70/42 28/67/42 63/66/42
f 66/71/43 9/72/43 33/73/43 65/74/43
f 65/74/44 34/4/44 10/3/44 66/71/44
f 65/74/45 33/73/45 17/75/45 67/76/45
f 67/76/46 18/5/46 34/4/46 65/74/46
f 69/77/47 38/78/47 14/27/47 68/79/47
f 68/79/48 13/24/48 37/80/49 69/77/48
f 70/81/50 22/41/50 38/78/51 69/77/50
f 69/77/52 37/80/52 21/39/52 70/81/53
f 57/82/54 1/83/54 41/84/54 71/85/54
f 71/85/55 42/19/55 2/86/55 57/82/55
f 71/85/56 41/84/56 9/72/56 66/71/56
f 66/71/57 10/3/57 42/19/57 71/85/57
f 72/87/58 46/26/59 6/57/58 60/56/59
f 60/56/60 5/58/60 45/25/60 72/87/60
f 68/79/61 14/27/61 46/26/61 72/87/61
f 72/87/62 45/25/62 13/24/62 68/79/62
f 67/76/63 17/75/63 49/88/63 73/89/63
f 73/89/64 50/34/64 18/5/64 67/76/64
f 73/89/65 49/88/65 25/90/65 62/91/65
f 62/91/66 26/92/66 50/34/66 73/89/66
f 74/93/67 54/42/67 22/41/67 70/81/67
f 70/81/68 21/39/69 53/38/68 74/93/69
f 64/69/70 30/68/70 54/42/70 74/93/70
f 74/93/71 53/38/71 29/70/71 64/69/72
f 41/32/73 1/94/73 48/29/73
f 8/30/74 48/29/74 1/94/74
f 7/31/75 6/57/75 47/28/75
f 46/26/76 47/28/76 6/57/76
f 4/22/77 44/21/77 5/58/77
f 45/25/78 5/58/78 44/21/78
f 3/23/79 2/86/79 43/20/79
f 42/19/80 43/20/80 2/86/80
f 22/41/81 23/14/81 38/78/81
f 39/13/82 38/78/82 23/14/82
f 32/45/83 25/95/83 56/43/83
f 49/46/84 56/43/84 25/95/84
f 39/13/85 15/12/85 38/78/85
f 14/27/86 38/78/86 15/12/86
f 31/44/87 55/40/87 30/68/87
f 54/42/88 30/68/88 55/40/88
f 36/7/89 20/9/89 37/80/89
f 21/39/90 37/80/90 20/9/90
f 28/37/91 29/70/91 52/35/91
f 53/38/92 52/35/92 29/70/92
f 13/24/93 12/8/93 37/80/93
f 36/7/94 37/80/94 12/8/94
f 50/34/95 26/92/95 51/33/95
f 27/36/96 51/33/96 26/92/96
